<svg width="33" height="61" viewBox="0 0 33 61" fill="none" xmlns="http://www.w3.org/2000/svg">
<path fill-rule="evenodd" clip-rule="evenodd" d="M1 60.0001V34.0347H9.01045V60.0001H1ZM23.887 60.0001H15.8766V34.0347H23.887V60.0001Z" fill="#C1977E"/>
<path d="M31.8975 60.0001V34.0347H23.887V60.0001H31.8975Z" fill="#997A67"/>
<path d="M9.01045 34.0347V60.0001H15.8766V34.0347H9.01045Z" fill="#997A67"/>
<path d="M9.01045 34.0347H1V60.0001H9.01045M9.01045 34.0347V60.0001M9.01045 34.0347H15.8766M9.01045 60.0001H15.8766M15.8766 60.0001V34.0347M15.8766 60.0001H23.887M15.8766 34.0347H23.887M23.887 34.0347H31.8975V60.0001H23.887M23.887 34.0347V60.0001" stroke="black" stroke-width="2"/>
<path fill-rule="evenodd" clip-rule="evenodd" d="M24.6832 21.4133C23.7679 26.3132 23.1213 29.7749 16.4672 33.8987C17.3874 32.7236 18.2986 30.0616 19.4011 26.8406C21.4312 20.9097 24.11 13.0838 28.688 9.15674C26.0151 14.2828 25.2901 18.1643 24.6832 21.4133Z" fill="#3B762F"/>
<path d="M28.688 9.15674C19.6955 15.8962 15.6638 19.7366 16.4672 33.8987C17.3874 32.7236 18.2986 30.0616 19.4011 26.8406C21.4312 20.9097 24.11 13.0838 28.688 9.15674Z" fill="#33532C"/>
<path d="M16.4672 33.8987C15.6638 19.7366 19.6955 15.8962 28.688 9.15674M16.4672 33.8987C23.1213 29.7749 23.7679 26.3132 24.6832 21.4133C25.2901 18.1643 26.0151 14.2828 28.688 9.15674M16.4672 33.8987C17.3874 32.7236 18.2986 30.0616 19.4011 26.8406C21.4312 20.9097 24.11 13.0838 28.688 9.15674" stroke="black"/>
<path fill-rule="evenodd" clip-rule="evenodd" d="M16.5093 34.0346C20.6985 20.4788 16.2125 16.162 12.4624 12.5533C9.48063 9.68396 6.96405 7.26227 9.64321 1C5.35007 7.74327 8.9801 13.5419 11.5175 17.5951C11.9111 18.2239 12.2784 18.8107 12.5858 19.3525C14.8745 23.3867 16.0189 30.3641 16.5093 34.0346Z" fill="#64A86D"/>
<path d="M16.5093 34.0346C16.0189 30.3641 14.8745 23.3867 12.5858 19.3525C12.2784 18.8107 11.9111 18.2239 11.5175 17.5951C8.9801 13.5419 5.35007 7.74327 9.64321 1C4.77263 8.05191 3.5945 23.023 16.5093 34.0346Z" fill="#56875D"/>
<path d="M16.5093 34.0346C16.0189 30.3641 14.8745 23.3867 12.5858 19.3525C12.2784 18.8107 11.9111 18.2239 11.5175 17.5951C8.9801 13.5419 5.35007 7.74327 9.64321 1M16.5093 34.0346C3.5945 23.023 4.77263 8.05191 9.64321 1M16.5093 34.0346C20.6985 20.4788 16.2125 16.162 12.4624 12.5533C9.48063 9.68395 6.96405 7.26227 9.64321 1" stroke="black"/>
</svg>
