<svg width="342" height="197" viewBox="0 0 342 197" fill="none" xmlns="http://www.w3.org/2000/svg">
<g filter="url(#filter0_d_3149_5860)">
<path d="M104 45L5 101.034V184H158V101.034L104 45Z" fill="#A1CCA5" stroke="black"/>
<path fill-rule="evenodd" clip-rule="evenodd" d="M9 184V103.463H30.5185V184H9ZM70.4815 184H48.963V103.463H70.4815V184Z" fill="#C1977E"/>
<path d="M92 184V103.463H70.4815V184H92Z" fill="#997A67"/>
<path d="M30.5185 103.463V184H48.963V103.463H30.5185Z" fill="#997A67"/>
<path d="M30.5185 103.463H9V184H30.5185M30.5185 103.463V184M30.5185 103.463H48.963M30.5185 184H48.963M48.963 184V103.463M48.963 184H70.4815M48.963 103.463H70.4815M70.4815 103.463H92V184H70.4815M70.4815 103.463V184" stroke="black" stroke-width="2"/>
<path fill-rule="evenodd" clip-rule="evenodd" d="M72.6196 64.3156C70.1609 79.5138 68.4238 90.2508 50.5491 103.041C53.0209 99.3968 55.4687 91.14 58.4304 81.1497C63.8839 62.7538 71.08 38.48 83.3776 26.2996C76.1976 42.1992 74.2499 54.2381 72.6196 64.3156Z" fill="#3B762F"/>
<path d="M83.3776 26.2996C59.221 47.2032 48.3908 59.1149 50.5491 103.041C53.0209 99.3968 55.4687 91.14 58.4304 81.1497C63.8839 62.7538 71.08 38.48 83.3776 26.2996Z" fill="#33532C"/>
<path d="M50.5491 103.041C48.3908 59.1149 59.221 47.2032 83.3776 26.2996M50.5491 103.041C68.4238 90.2508 70.1609 79.5138 72.6196 64.3156C74.2499 54.2381 76.1976 42.1992 83.3776 26.2996M50.5491 103.041C53.0209 99.3968 55.4687 91.14 58.4304 81.1497C63.8839 62.7538 71.08 38.48 83.3776 26.2996" stroke="black"/>
<path fill-rule="evenodd" clip-rule="evenodd" d="M50.6648 103.463C61.9182 61.4173 49.8676 48.0279 39.7936 36.8348C31.7837 27.935 25.0233 20.4236 32.2204 1C20.6877 21.9156 30.4391 39.9013 37.2552 52.473C38.3126 54.4234 39.2994 56.2435 40.1251 57.924C46.2733 70.4366 49.3474 92.0783 50.6648 103.463Z" fill="#64A86D"/>
<path d="M50.6648 103.463C49.3474 92.0783 46.2733 70.4366 40.1251 57.924C39.2994 56.2435 38.3126 54.4234 37.2552 52.473C30.4391 39.9013 20.6877 21.9156 32.2204 1C19.1365 22.8729 15.9717 69.3088 50.6648 103.463Z" fill="#56875D"/>
<path d="M50.6648 103.463C49.3474 92.0783 46.2733 70.4366 40.1251 57.924C39.2994 56.2435 38.3126 54.4234 37.2552 52.473C30.4391 39.9013 20.6877 21.9156 32.2204 1M50.6648 103.463C15.9717 69.3088 19.1365 22.8729 32.2204 1M50.6648 103.463C61.9182 61.4173 49.8676 48.0279 39.7936 36.8348C31.7837 27.935 25.0233 20.4236 32.2204 1" stroke="black"/>
<path d="M112.416 173H111.776C110.667 173 109.6 172.893 108.576 172.68C107.552 172.467 106.635 172.083 105.824 171.528C105.056 170.973 104.416 170.205 103.904 169.224C103.435 168.243 103.2 166.963 103.2 165.384V134.216C103.2 132.68 103.435 131.421 103.904 130.44C104.373 129.459 104.992 128.691 105.76 128.136C106.528 127.539 107.403 127.133 108.384 126.92C109.365 126.664 110.368 126.536 111.392 126.536H112.416V173ZM113.76 146.376H119.456C119.456 147.357 119.371 148.253 119.2 149.064C119.072 149.875 118.795 150.6 118.368 151.24C117.984 151.837 117.451 152.307 116.768 152.648C116.085 152.989 115.211 153.16 114.144 153.16H113.76V146.376ZM126.432 132.616C126.432 133.981 126.176 135.069 125.664 135.88C125.152 136.691 124.533 137.331 123.808 137.8C123.083 138.269 122.315 138.589 121.504 138.76C120.693 138.888 119.989 138.952 119.392 138.952C118.88 138.952 118.453 138.909 118.112 138.824V135.88C118.112 135.112 117.92 134.493 117.536 134.024C117.152 133.512 116.597 133.256 115.872 133.256C115.061 133.256 114.379 133.512 113.824 134.024C113.696 133.683 113.611 133.384 113.568 133.128C113.568 132.829 113.568 132.509 113.568 132.168C113.568 131.571 113.675 130.931 113.888 130.248C114.144 129.565 114.507 128.947 114.976 128.392C115.488 127.837 116.128 127.389 116.896 127.048C117.707 126.664 118.667 126.472 119.776 126.472C120.672 126.472 121.525 126.621 122.336 126.92C123.147 127.219 123.851 127.645 124.448 128.2C125.045 128.755 125.515 129.416 125.856 130.184C126.24 130.909 126.432 131.72 126.432 132.616ZM150.622 169.8C149.47 170.952 148.105 171.848 146.526 172.488C144.99 173.128 143.347 173.448 141.598 173.448C139.806 173.448 138.142 173.128 136.606 172.488C135.113 171.848 133.811 170.952 132.702 169.8C131.55 168.691 130.654 167.389 130.014 165.896C129.374 164.36 129.054 162.717 129.054 160.968C129.054 159.261 129.374 157.64 130.014 156.104C130.654 154.568 131.55 153.224 132.702 152.072C133.811 150.963 135.134 150.088 136.67 149.448C138.206 148.765 139.849 148.424 141.598 148.424C143.347 148.424 144.99 148.765 146.526 149.448C148.105 150.088 149.47 150.963 150.622 152.072C151.731 153.224 152.606 154.568 153.246 156.104C153.929 157.64 154.27 159.261 154.27 160.968C154.27 162.717 153.929 164.339 153.246 165.832C152.606 167.325 151.731 168.648 150.622 169.8ZM134.558 167.944C135.454 168.883 136.499 169.608 137.694 170.12C138.889 170.632 140.169 170.888 141.534 170.888C142.899 170.888 144.179 170.632 145.374 170.12C146.611 169.608 147.678 168.883 148.574 167.944C149.513 167.091 150.238 166.067 150.75 164.872C151.262 163.677 151.518 162.376 151.518 160.968C151.518 159.645 151.262 158.387 150.75 157.192C150.238 155.955 149.513 154.867 148.574 153.928C147.678 153.032 146.611 152.328 145.374 151.816C144.179 151.304 142.899 151.048 141.534 151.048C140.169 151.048 138.889 151.304 137.694 151.816C136.499 152.328 135.454 153.032 134.558 153.928C133.662 154.867 132.958 155.933 132.446 157.128C131.934 158.323 131.678 159.603 131.678 160.968C131.678 162.376 131.934 163.677 132.446 164.872C132.958 166.067 133.662 167.091 134.558 167.944ZM171.092 173H158.74V170.504H163.476V127.496H158.932V125H166.1V170.504H171.092V173ZM187.905 173H175.553V170.504H180.481V151.496H175.553V149H183.105V170.504H187.905V173ZM183.937 140.488C183.937 141.085 183.723 141.597 183.297 142.024C182.87 142.408 182.379 142.6 181.825 142.6C181.313 142.6 180.843 142.408 180.417 142.024C179.99 141.597 179.777 141.085 179.777 140.488C179.777 139.891 179.99 139.4 180.417 139.016C180.843 138.589 181.313 138.376 181.825 138.376C182.379 138.376 182.87 138.589 183.297 139.016C183.723 139.4 183.937 139.891 183.937 140.488ZM222.317 173H215.213V170.376C215.213 169.864 215.213 169.395 215.213 168.968C215.213 168.499 215.213 167.987 215.213 167.432C214.914 168.2 214.445 168.947 213.805 169.672C213.208 170.355 212.482 170.973 211.629 171.528C210.733 172.125 209.709 172.595 208.557 172.936C207.448 173.277 206.253 173.448 204.973 173.448C203.181 173.448 201.517 173.128 199.981 172.488C198.488 171.848 197.165 170.952 196.013 169.8C194.861 168.648 193.965 167.325 193.325 165.832C192.685 164.339 192.365 162.717 192.365 160.968C192.365 159.304 192.685 157.704 193.325 156.168C193.965 154.632 194.861 153.288 196.013 152.136C197.165 151.027 198.488 150.152 199.981 149.512C201.517 148.829 203.181 148.488 204.973 148.488C207.49 148.488 209.645 149.107 211.437 150.344C213.229 151.539 214.488 152.968 215.213 154.632C215.213 153.736 215.234 152.819 215.277 151.88C215.32 150.899 215.384 149.939 215.469 149H217.581V170.504H222.317V173ZM204.973 151.048C203.522 151.048 202.178 151.304 200.941 151.816C199.704 152.328 198.658 153.053 197.805 153.992C196.909 154.888 196.205 155.933 195.693 157.128C195.224 158.323 194.989 159.603 194.989 160.968C194.989 162.419 195.266 163.763 195.821 165C196.376 166.237 197.144 167.304 198.125 168.2C199.021 169.053 200.045 169.715 201.197 170.184C202.349 170.653 203.608 170.888 204.973 170.888C206.338 170.888 207.618 170.653 208.813 170.184C210.008 169.672 211.053 168.968 211.949 168.072C212.888 167.176 213.613 166.131 214.125 164.936C214.68 163.699 214.957 162.376 214.957 160.968C214.957 159.56 214.68 158.259 214.125 157.064C213.613 155.827 212.909 154.76 212.013 153.864C211.074 152.968 210.008 152.285 208.813 151.816C207.618 151.304 206.338 151.048 204.973 151.048ZM230.003 185.288L231.859 183.176C232.755 184.115 233.907 184.861 235.315 185.416C236.723 186.013 238.195 186.312 239.731 186.312C241.053 186.312 242.291 186.035 243.443 185.48C244.637 184.968 245.683 184.2 246.579 183.176C247.432 182.195 248.115 181 248.627 179.592C249.139 178.227 249.395 176.712 249.395 175.048V170.568C249.395 170.141 249.395 169.672 249.395 169.16C249.437 168.648 249.459 168.115 249.459 167.56C249.16 168.371 248.691 169.117 248.051 169.8C247.453 170.483 246.749 171.08 245.939 171.592C245.043 172.189 244.04 172.659 242.931 173C241.821 173.299 240.648 173.448 239.411 173.448C237.619 173.448 235.955 173.128 234.419 172.488C232.925 171.805 231.603 170.888 230.451 169.736C229.299 168.627 228.403 167.325 227.763 165.832C227.123 164.339 226.803 162.717 226.803 160.968C226.803 159.304 227.123 157.704 227.763 156.168C228.403 154.632 229.299 153.288 230.451 152.136C231.603 151.027 232.925 150.152 234.419 149.512C235.955 148.829 237.619 148.488 239.411 148.488C241.8 148.488 243.912 149.085 245.747 150.28C247.581 151.475 248.883 152.925 249.651 154.632C249.651 153.693 249.672 152.776 249.715 151.88C249.757 150.941 249.821 149.981 249.907 149H256.755V151.496H252.019V175.176C252.019 177.309 251.699 179.208 251.059 180.872C250.419 182.579 249.544 184.008 248.435 185.16C247.325 186.355 246.024 187.272 244.531 187.912C243.08 188.595 241.501 188.957 239.795 189C237.747 189 235.891 188.659 234.227 187.976C232.605 187.336 231.197 186.44 230.003 185.288ZM239.411 151.048C237.96 151.048 236.616 151.325 235.379 151.88C234.141 152.392 233.096 153.117 232.243 154.056C231.347 154.952 230.643 155.997 230.131 157.192C229.661 158.344 229.427 159.603 229.427 160.968C229.427 162.376 229.683 163.699 230.195 164.936C230.749 166.131 231.475 167.176 232.371 168.072C233.267 168.968 234.312 169.672 235.507 170.184C236.701 170.653 238.003 170.888 239.411 170.888C240.819 170.888 242.12 170.632 243.315 170.12C244.552 169.565 245.619 168.84 246.515 167.944C247.411 167.091 248.115 166.067 248.627 164.872C249.139 163.677 249.395 162.376 249.395 160.968C249.395 159.56 249.117 158.237 248.563 157C248.008 155.763 247.261 154.675 246.323 153.736C245.427 152.883 244.381 152.221 243.187 151.752C241.992 151.283 240.733 151.048 239.411 151.048ZM273.784 151.048C272.163 151.048 270.669 151.389 269.304 152.072C267.981 152.755 266.872 153.672 265.976 154.824C265.123 155.933 264.525 157.192 264.184 158.6C263.843 159.965 263.821 161.373 264.12 162.824C267.021 161.672 269.901 160.541 272.76 159.432C275.661 158.28 278.563 157.128 281.464 155.976C280.696 154.525 279.629 153.352 278.264 152.456C276.941 151.517 275.448 151.048 273.784 151.048ZM282.168 170.12C281.059 171.144 279.8 171.955 278.392 172.552C276.984 173.149 275.448 173.448 273.784 173.448C272.035 173.448 270.392 173.128 268.856 172.488C267.363 171.848 266.04 170.952 264.888 169.8C263.736 168.648 262.84 167.325 262.2 165.832C261.56 164.339 261.24 162.717 261.24 160.968C261.24 159.261 261.56 157.64 262.2 156.104C262.84 154.568 263.736 153.245 264.888 152.136C266.04 151.027 267.363 150.152 268.856 149.512C270.392 148.829 272.035 148.488 273.784 148.488C275.107 148.488 276.365 148.723 277.56 149.192C278.755 149.619 279.821 150.259 280.76 151.112C281.656 151.88 282.445 152.819 283.128 153.928C283.811 154.995 284.365 156.168 284.792 157.448C281.464 158.771 278.136 160.072 274.808 161.352C271.523 162.632 268.216 163.955 264.888 165.32C265.656 166.984 266.829 168.328 268.408 169.352C269.987 170.376 271.779 170.888 273.784 170.888C275.107 170.888 276.344 170.653 277.496 170.184C278.648 169.715 279.672 169.053 280.568 168.2L282.168 170.12Z" fill="black"/>
</g>
<defs>
<filter id="filter0_d_3149_5860" x="0.5" y="0.743347" width="288.292" height="196.257" filterUnits="userSpaceOnUse" color-interpolation-filters="sRGB">
<feFlood flood-opacity="0" result="BackgroundImageFix"/>
<feColorMatrix in="SourceAlpha" type="matrix" values="0 0 0 0 0 0 0 0 0 0 0 0 0 0 0 0 0 0 127 0" result="hardAlpha"/>
<feOffset dy="4"/>
<feGaussianBlur stdDeviation="2"/>
<feComposite in2="hardAlpha" operator="out"/>
<feColorMatrix type="matrix" values="0 0 0 0 0 0 0 0 0 0 0 0 0 0 0 0 0 0 0.25 0"/>
<feBlend mode="normal" in2="BackgroundImageFix" result="effect1_dropShadow_3149_5860"/>
<feBlend mode="normal" in="SourceGraphic" in2="effect1_dropShadow_3149_5860" result="shape"/>
</filter>
</defs>
</svg>
